<svg id="visual" viewBox="0 0 900 600" width="900" height="600" xmlns="http://www.w3.org/2000/svg" xmlns:xlink="http://www.w3.org/1999/xlink" version="1.1"><path d="M772 600L723.2 585.7C674.3 571.3 576.7 542.7 504 514.2C431.3 485.7 383.7 457.3 438 428.8C492.3 400.3 648.7 371.7 722.8 343C797 314.3 789 285.7 725.2 257C661.3 228.3 541.7 199.7 465.5 171.2C389.3 142.7 356.7 114.3 319.5 85.8C282.3 57.3 240.7 28.7 219.8 14.3L199 0L900 0L900 14.3C900 28.7 900 57.3 900 85.8C900 114.3 900 142.7 900 171.2C900 199.7 900 228.3 900 257C900 285.7 900 314.3 900 343C900 371.7 900 400.3 900 428.8C900 457.3 900 485.7 900 514.2C900 542.7 900 571.3 900 585.7L900 600Z" fill="#00a2ff" stroke-linecap="round" stroke-linejoin="miter"></path></svg>