<svg id="visual" viewBox="0 0 900 600" width="900" height="600" xmlns="http://www.w3.org/2000/svg" xmlns:xlink="http://www.w3.org/1999/xlink" version="1.1"><path d="M745 600L681.7 585.7C618.3 571.3 491.7 542.7 405.3 514.2C319 485.7 273 457.3 311.3 428.8C349.7 400.3 472.3 371.7 523.8 343C575.3 314.3 555.7 285.7 521.7 257C487.7 228.3 439.3 199.7 410.8 171.2C382.3 142.7 373.7 114.3 352.7 85.8C331.7 57.3 298.3 28.7 281.7 14.3L265 0L900 0L900 14.3C900 28.7 900 57.3 900 85.8C900 114.3 900 142.7 900 171.2C900 199.7 900 228.3 900 257C900 285.7 900 314.3 900 343C900 371.7 900 400.3 900 428.8C900 457.3 900 485.7 900 514.2C900 542.7 900 571.3 900 585.7L900 600Z" fill="#0066FF" stroke-linecap="round" stroke-linejoin="miter"></path></svg>