<svg id="visual" viewBox="0 0 900 600" width="900" height="600" xmlns="http://www.w3.org/2000/svg" xmlns:xlink="http://www.w3.org/1999/xlink" version="1.1"><path d="M760 600L760.2 585.7C760.3 571.3 760.7 542.7 701 514.2C641.3 485.7 521.7 457.3 516.2 428.8C510.7 400.3 619.3 371.7 625.5 343C631.7 314.3 535.3 285.7 528 257C520.7 228.3 602.3 199.7 601.5 171.2C600.7 142.7 517.3 114.3 452.8 85.8C388.3 57.3 342.7 28.7 319.8 14.3L297 0L900 0L900 14.3C900 28.7 900 57.3 900 85.8C900 114.3 900 142.7 900 171.2C900 199.7 900 228.3 900 257C900 285.7 900 314.3 900 343C900 371.7 900 400.3 900 428.8C900 457.3 900 485.7 900 514.2C900 542.7 900 571.3 900 585.7L900 600Z" fill="#0066FF" stroke-linecap="round" stroke-linejoin="miter"></path></svg>